<svg width="33" height="22" viewBox="0 0 33 22" fill="none" xmlns="http://www.w3.org/2000/svg">
<path d="M3.34943 13.9091L3.40057 13.6023C3.51989 12.9034 3.66903 12.3452 3.84801 11.9276C4.03125 11.5099 4.25284 11.1754 4.51278 10.924C4.77273 10.6683 5.07528 10.4361 5.42045 10.2273C5.71875 10.0483 5.98935 9.87571 6.23224 9.70952C6.4794 9.54332 6.68182 9.36648 6.83949 9.17898C6.99716 8.99148 7.09517 8.77841 7.13352 8.53977C7.16761 8.3267 7.14631 8.1392 7.0696 7.97727C6.9929 7.81534 6.87571 7.68963 6.71804 7.60014C6.56037 7.51065 6.375 7.46591 6.16193 7.46591C5.93182 7.46591 5.71023 7.51918 5.49716 7.62571C5.28409 7.73224 5.10298 7.87926 4.95384 8.06676C4.80469 8.25426 4.71307 8.47159 4.67898 8.71875H1.40625C1.56818 7.78125 1.90483 7.0206 2.41619 6.43679C2.92756 5.84872 3.55185 5.41832 4.28906 5.1456C5.02628 4.86861 5.8125 4.73011 6.64773 4.73011C7.55114 4.73011 8.33736 4.86435 9.00639 5.13281C9.67969 5.39702 10.1783 5.79758 10.5021 6.33452C10.826 6.86719 10.9219 7.53409 10.7898 8.33523C10.7045 8.85511 10.5426 9.31108 10.304 9.70312C10.0696 10.0909 9.77131 10.4339 9.40909 10.7322C9.04688 11.0263 8.63778 11.2926 8.18182 11.5312C7.84091 11.7102 7.54901 11.8935 7.30611 12.081C7.06747 12.2685 6.87358 12.4837 6.72443 12.7266C6.57955 12.9695 6.47727 13.2614 6.41761 13.6023L6.36648 13.9091H3.34943ZM4.26989 18.2045C3.77131 18.2045 3.36435 18.032 3.04901 17.6868C2.73793 17.3374 2.60795 16.9134 2.65909 16.4148C2.71023 15.929 2.92969 15.5135 3.31747 15.1683C3.70952 14.8232 4.15483 14.6506 4.65341 14.6506C5.12642 14.6506 5.5206 14.8232 5.83594 15.1683C6.15554 15.5135 6.28977 15.929 6.23864 16.4148C6.20455 16.7472 6.08736 17.0497 5.88707 17.3224C5.69105 17.5909 5.44815 17.8061 5.15838 17.968C4.87287 18.1257 4.5767 18.2045 4.26989 18.2045ZM14.1424 13.9091L14.1935 13.6023C14.3129 12.9034 14.462 12.3452 14.641 11.9276C14.8242 11.5099 15.0458 11.1754 15.3058 10.924C15.5657 10.6683 15.8683 10.4361 16.2134 10.2273C16.5117 10.0483 16.7823 9.87571 17.0252 9.70952C17.2724 9.54332 17.4748 9.36648 17.6325 9.17898C17.7901 8.99148 17.8881 8.77841 17.9265 8.53977C17.9606 8.3267 17.9393 8.1392 17.8626 7.97727C17.7859 7.81534 17.6687 7.68963 17.511 7.60014C17.3533 7.51065 17.168 7.46591 16.9549 7.46591C16.7248 7.46591 16.5032 7.51918 16.2901 7.62571C16.0771 7.73224 15.896 7.87926 15.7468 8.06676C15.5977 8.25426 15.506 8.47159 15.4719 8.71875H12.1992C12.3612 7.78125 12.6978 7.0206 13.2092 6.43679C13.7205 5.84872 14.3448 5.41832 15.082 5.1456C15.8192 4.86861 16.6055 4.73011 17.4407 4.73011C18.3441 4.73011 19.1303 4.86435 19.7994 5.13281C20.4727 5.39702 20.9712 5.79758 21.2951 6.33452C21.619 6.86719 21.7148 7.53409 21.5827 8.33523C21.4975 8.85511 21.3356 9.31108 21.0969 9.70312C20.8626 10.0909 20.5643 10.4339 20.2021 10.7322C19.8398 11.0263 19.4308 11.2926 18.9748 11.5312C18.6339 11.7102 18.342 11.8935 18.0991 12.081C17.8604 12.2685 17.6665 12.4837 17.5174 12.7266C17.3725 12.9695 17.2702 13.2614 17.2106 13.6023L17.1594 13.9091H14.1424ZM15.0629 18.2045C14.5643 18.2045 14.1573 18.032 13.842 17.6868C13.5309 17.3374 13.4009 16.9134 13.4521 16.4148C13.5032 15.929 13.7227 15.5135 14.1104 15.1683C14.5025 14.8232 14.9478 14.6506 15.4464 14.6506C15.9194 14.6506 16.3136 14.8232 16.6289 15.1683C16.9485 15.5135 17.0827 15.929 17.0316 16.4148C16.9975 16.7472 16.8803 17.0497 16.68 17.3224C16.484 17.5909 16.2411 17.8061 15.9513 17.968C15.6658 18.1257 15.3697 18.2045 15.0629 18.2045ZM24.9354 13.9091L24.9865 13.6023C25.1058 12.9034 25.255 12.3452 25.4339 11.9276C25.6172 11.5099 25.8388 11.1754 26.0987 10.924C26.3587 10.6683 26.6612 10.4361 27.0064 10.2273C27.3047 10.0483 27.5753 9.87571 27.8182 9.70952C28.0653 9.54332 28.2678 9.36648 28.4254 9.17898C28.5831 8.99148 28.6811 8.77841 28.7195 8.53977C28.7536 8.3267 28.7322 8.1392 28.6555 7.97727C28.5788 7.81534 28.4616 7.68963 28.304 7.60014C28.1463 7.51065 27.9609 7.46591 27.7479 7.46591C27.5178 7.46591 27.2962 7.51918 27.0831 7.62571C26.87 7.73224 26.6889 7.87926 26.5398 8.06676C26.3906 8.25426 26.299 8.47159 26.2649 8.71875H22.9922C23.1541 7.78125 23.4908 7.0206 24.0021 6.43679C24.5135 5.84872 25.1378 5.41832 25.875 5.1456C26.6122 4.86861 27.3984 4.73011 28.2337 4.73011C29.1371 4.73011 29.9233 4.86435 30.5923 5.13281C31.2656 5.39702 31.7642 5.79758 32.0881 6.33452C32.4119 6.86719 32.5078 7.53409 32.3757 8.33523C32.2905 8.85511 32.1286 9.31108 31.8899 9.70312C31.6555 10.0909 31.3572 10.4339 30.995 10.7322C30.6328 11.0263 30.2237 11.2926 29.7678 11.5312C29.4268 11.7102 29.1349 11.8935 28.892 12.081C28.6534 12.2685 28.4595 12.4837 28.3104 12.7266C28.1655 12.9695 28.0632 13.2614 28.0036 13.6023L27.9524 13.9091H24.9354ZM25.8558 18.2045C25.3572 18.2045 24.9503 18.032 24.6349 17.6868C24.3239 17.3374 24.1939 16.9134 24.245 16.4148C24.2962 15.929 24.5156 15.5135 24.9034 15.1683C25.2955 14.8232 25.7408 14.6506 26.2393 14.6506C26.7124 14.6506 27.1065 14.8232 27.4219 15.1683C27.7415 15.5135 27.8757 15.929 27.8246 16.4148C27.7905 16.7472 27.6733 17.0497 27.473 17.3224C27.277 17.5909 27.0341 17.8061 26.7443 17.968C26.4588 18.1257 26.1626 18.2045 25.8558 18.2045Z" fill="#B8FFAD"/>
</svg>
