<svg width="417" height="61" viewBox="0 0 417 61" fill="none" xmlns="http://www.w3.org/2000/svg">
<path d="M0.114073 60L9.81032 1.5944H50.8768L48.7094 14.3706H23.4991L21.9021 24.4091H44.6027L42.4353 37.1853H19.7347L15.9703 60H0.114073ZM54.8907 60H37.7797L66.7543 1.5944H88.4283L98.0105 60H80.8995L75.1958 17.6788H74.7395L54.8907 60ZM55.5752 36.9572H87.7439L85.6905 48.8208H53.5218L55.5752 36.9572ZM161.407 23.4965H145.551C145.665 22.1466 145.589 20.9299 145.322 19.8462C145.056 18.7625 144.6 17.8309 143.954 17.0514C143.307 16.2528 142.461 15.6444 141.415 15.2262C140.37 14.8079 139.124 14.5988 137.68 14.5988C134.904 14.5988 132.423 15.2927 130.236 16.6806C128.05 18.0495 126.234 20.0173 124.789 22.5839C123.344 25.1316 122.318 28.1735 121.709 31.7098C121.177 35.132 121.158 37.9743 121.652 40.2368C122.166 42.4992 123.164 44.1913 124.647 45.313C126.149 46.4348 128.097 46.9956 130.493 46.9956C132.09 46.9956 133.554 46.8055 134.885 46.4253C136.235 46.045 137.432 45.5032 138.478 44.7997C139.543 44.0773 140.446 43.2217 141.187 42.2331C141.948 41.2254 142.528 40.1132 142.927 38.8964H158.897C158.289 41.368 157.205 43.8966 155.646 46.4823C154.087 49.049 152.072 51.416 149.6 53.5834C147.129 55.7318 144.22 57.4714 140.874 58.8022C137.527 60.1331 133.763 60.7985 129.58 60.7985C124.105 60.7985 119.38 59.6007 115.407 57.2052C111.452 54.8097 108.581 51.3114 106.794 46.7104C105.026 42.1095 104.674 36.5009 105.739 29.8846C106.804 23.4965 108.904 18.1446 112.042 13.8288C115.179 9.513 118.99 6.26191 123.477 4.0755C127.964 1.88909 132.736 0.795889 137.794 0.795889C141.615 0.795889 145.037 1.29971 148.06 2.30736C151.102 3.31501 153.659 4.78846 155.732 6.72771C157.823 8.64794 159.363 11.015 160.352 13.8288C161.34 16.6426 161.692 19.8652 161.407 23.4965ZM162.612 60L172.308 1.5944H214.401L212.234 14.3706H185.997L184.4 24.4091H208.469L206.302 37.1853H182.232L180.635 47.2238H206.758L204.591 60H162.612ZM212.569 60L222.265 1.5944H238.121L230.592 47.2238H254.206L252.038 60H212.569ZM258.448 60L268.144 1.5944H310.237L308.07 14.3706H281.833L280.236 24.4091H304.305L302.138 37.1853H278.068L276.471 47.2238H302.594L300.427 60H258.448ZM346.505 19.8462C346.676 17.9639 346.22 16.4905 345.136 15.4258C344.053 14.3421 342.227 13.8003 339.661 13.8003C338.026 13.8003 336.657 13.9904 335.554 14.3706C334.47 14.7509 333.624 15.2737 333.016 15.9391C332.427 16.6046 332.056 17.3746 331.904 18.2491C331.733 18.9336 331.742 19.561 331.932 20.1313C332.141 20.6827 332.531 21.1865 333.102 21.6428C333.691 22.0991 334.461 22.5079 335.412 22.8691C336.381 23.2303 337.531 23.5535 338.862 23.8387L343.425 24.8654C346.543 25.5498 349.157 26.4529 351.268 27.5746C353.397 28.6773 355.07 29.9892 356.287 31.5102C357.504 33.0311 358.302 34.7327 358.682 36.6149C359.082 38.4972 359.091 40.5505 358.711 42.7749C358.065 46.6154 356.572 49.8665 354.234 52.5282C351.895 55.1899 348.844 57.2147 345.079 58.6026C341.315 59.9905 336.961 60.6844 332.018 60.6844C326.961 60.6844 322.664 59.9335 319.128 58.4315C315.61 56.9105 313.063 54.591 311.485 51.473C309.926 48.336 309.545 44.3339 310.344 39.4668H325.402C325.173 41.2539 325.364 42.7559 325.972 43.9727C326.58 45.1895 327.559 46.1116 328.909 46.739C330.259 47.3664 331.942 47.6801 333.957 47.6801C335.668 47.6801 337.132 47.4709 338.349 47.0527C339.566 46.6344 340.526 46.0545 341.229 45.313C341.933 44.5716 342.36 43.7255 342.513 42.7749C342.665 41.9003 342.513 41.1208 342.056 40.4364C341.6 39.752 340.773 39.1341 339.575 38.5827C338.377 38.0314 336.733 37.5275 334.642 37.0712L329.052 35.8164C324.09 34.6757 320.344 32.7935 317.816 30.1698C315.287 27.5461 314.393 23.9528 315.135 19.3899C315.743 15.6635 317.274 12.4124 319.726 9.63658C322.198 6.84178 325.335 4.67438 329.137 3.13439C332.959 1.57539 337.189 0.795889 341.828 0.795889C346.543 0.795889 350.488 1.5849 353.663 3.16291C356.857 4.74093 359.148 6.95585 360.536 9.80769C361.943 12.6595 362.323 16.0057 361.677 19.8462H346.505ZM399.991 19.8462C400.162 17.9639 399.706 16.4905 398.622 15.4258C397.539 14.3421 395.714 13.8003 393.147 13.8003C391.512 13.8003 390.143 13.9904 389.04 14.3706C387.957 14.7509 387.111 15.2737 386.502 15.9391C385.913 16.6046 385.542 17.3746 385.39 18.2491C385.219 18.9336 385.228 19.561 385.418 20.1313C385.628 20.6827 386.017 21.1865 386.588 21.6428C387.177 22.0991 387.947 22.5079 388.898 22.8691C389.867 23.2303 391.018 23.5535 392.348 23.8387L396.911 24.8654C400.029 25.5498 402.644 26.4529 404.754 27.5746C406.883 28.6773 408.556 29.9892 409.773 31.5102C410.99 33.0311 411.788 34.7327 412.169 36.6149C412.568 38.4972 412.577 40.5505 412.197 42.7749C411.551 46.6154 410.058 49.8665 407.72 52.5282C405.381 55.1899 402.33 57.2147 398.565 58.6026C394.801 59.9905 390.447 60.6844 385.504 60.6844C380.447 60.6844 376.15 59.9335 372.614 58.4315C369.096 56.9105 366.549 54.591 364.971 51.473C363.412 48.336 363.032 44.3339 363.83 39.4668H378.888C378.66 41.2539 378.85 42.7559 379.458 43.9727C380.067 45.1895 381.046 46.1116 382.396 46.739C383.745 47.3664 385.428 47.6801 387.443 47.6801C389.154 47.6801 390.618 47.4709 391.835 47.0527C393.052 46.6344 394.012 46.0545 394.715 45.313C395.419 44.5716 395.847 43.7255 395.999 42.7749C396.151 41.9003 395.999 41.1208 395.542 40.4364C395.086 39.752 394.259 39.1341 393.061 38.5827C391.864 38.0314 390.219 37.5275 388.128 37.0712L382.538 35.8164C377.576 34.6757 373.83 32.7935 371.302 30.1698C368.773 27.5461 367.88 23.9528 368.621 19.3899C369.23 15.6635 370.76 12.4124 373.213 9.63658C375.684 6.84178 378.821 4.67438 382.624 3.13439C386.445 1.57539 390.675 0.795889 395.314 0.795889C400.029 0.795889 403.974 1.5849 407.149 3.16291C410.343 4.74093 412.634 6.95585 414.022 9.80769C415.429 12.6595 415.81 16.0057 415.163 19.8462H399.991Z" fill="#B8FFAD"/>
</svg>
