<svg width="130" height="130" viewBox="0 0 130 130" fill="none" xmlns="http://www.w3.org/2000/svg">
<path d="M130 65C130 100.899 100.899 130 65 130C29.1015 130 0 100.899 0 65C0 29.1015 29.1015 0 65 0C100.899 0 130 29.1015 130 65Z" fill="#E0B74E"/>
<path fill-rule="evenodd" clip-rule="evenodd" d="M33.9409 30.0015L56.4504 30.001C64.2977 30.0008 71.233 31.4456 77.2563 34.3354C83.2795 37.2252 87.9605 41.2942 91.2992 46.5425C94.6379 51.7909 96.3073 57.9028 96.3075 64.8785C96.3076 71.8543 94.6385 77.9663 91.3001 83.2148C87.9616 88.4633 83.2809 92.5325 77.2577 95.4226C71.2346 98.3127 69.2556 99.7577 56.452 99.758L33.9425 99.7586L33.9409 30.0015ZM55.6257 86.5042C62.8535 86.504 68.6185 84.5607 72.9207 80.6741C77.2229 76.7875 79.3739 71.5225 79.3737 64.879C79.3735 58.2354 77.2223 52.9705 72.9199 49.0841C68.6175 45.1977 62.8525 43.2547 55.6246 43.2548L50.6684 43.255L50.6695 86.5043L55.6257 86.5042Z" fill="white"/>
<path d="M33.9409 30.0015L33.9408 26.6265L30.5658 26.6266L30.5659 30.0016L33.9409 30.0015ZM56.452 99.758L56.452 96.383L56.452 99.758ZM33.9425 99.7586L30.5675 99.7587L30.5676 103.134L33.9426 103.134L33.9425 99.7586ZM55.6257 86.5042L55.6258 89.8792L55.6257 86.5042ZM55.6246 43.2548L55.6247 46.6298L55.6246 43.2548ZM50.6684 43.255L50.6683 39.88L47.2933 39.88L47.2934 43.255L50.6684 43.255ZM50.6695 86.5043L47.2945 86.5044L47.2946 89.8794L50.6696 89.8793L50.6695 86.5043ZM33.9409 33.3765L56.4504 33.376L56.4503 26.626L33.9408 26.6265L33.9409 33.3765ZM56.4504 33.376C63.8801 33.3758 70.3017 34.7421 75.7963 37.3783L78.7162 31.2925C72.1643 28.1491 64.7154 26.6258 56.4503 26.626L56.4504 33.376ZM75.7963 37.3783C81.2949 40.0163 85.4764 43.6773 88.4515 48.354L94.1468 44.731C90.4445 38.9111 85.2642 34.434 78.7162 31.2925L75.7963 37.3783ZM88.4515 48.354C91.4051 52.997 92.9323 58.4642 92.9325 64.8786L99.6825 64.8785C99.6823 57.3414 97.8706 50.5848 94.1468 44.731L88.4515 48.354ZM92.9325 64.8786C92.9326 71.293 91.4057 76.7604 88.4523 81.4034L94.1478 85.0262C97.8713 79.1723 99.6826 72.4155 99.6825 64.8785L92.9325 64.8786ZM88.4523 81.4034C85.4775 86.0803 81.2961 89.7415 75.7977 92.3798L78.7178 98.4655C85.2656 95.3236 90.4457 90.8463 94.1478 85.0262L88.4523 81.4034ZM75.7977 92.3798C72.6283 93.9006 71.0047 94.7844 68.5676 95.4026C66.1311 96.0208 62.7701 96.3829 56.452 96.383L56.4521 103.133C62.9376 103.133 66.9678 102.772 70.2275 101.945C73.4866 101.119 75.8641 99.8348 78.7178 98.4655L75.7977 92.3798ZM56.452 96.383L33.9425 96.3836L33.9426 103.134L56.4521 103.133L56.452 96.383ZM37.3175 99.7585L37.3159 30.0014L30.5659 30.0016L30.5675 99.7587L37.3175 99.7585ZM55.6258 89.8792C63.4749 89.879 70.1179 87.7544 75.1831 83.1785L70.6582 78.1697C67.119 81.367 62.2322 83.1291 55.6256 83.1292L55.6258 89.8792ZM75.1831 83.1785C80.3002 78.5557 82.7489 72.3233 82.7487 64.8789L75.9987 64.879C75.9989 70.7217 74.1455 75.0193 70.6582 78.1697L75.1831 83.1785ZM82.7487 64.8789C82.7485 57.4344 80.2996 51.2021 75.1822 46.5796L70.6576 51.5886C74.145 54.7389 75.9986 59.0364 75.9987 64.879L82.7487 64.8789ZM75.1822 46.5796C70.1168 42.004 63.4736 39.8796 55.6246 39.8798L55.6247 46.6298C62.2313 46.6297 67.1182 48.3915 70.6576 51.5886L75.1822 46.5796ZM55.6246 39.8798L50.6683 39.88L50.6685 46.63L55.6247 46.6298L55.6246 39.8798ZM47.2934 43.255L47.2945 86.5044L54.0445 86.5043L54.0434 43.2549L47.2934 43.255ZM50.6696 89.8793L55.6258 89.8792L55.6256 83.1292L50.6694 83.1293L50.6696 89.8793Z" fill="#E0B74E"/>
<rect width="75.3576" height="7.65058" transform="matrix(1 -1.86243e-05 3.15988e-05 1 27 68.6728)" fill="white"/>
<rect width="75.3574" height="7.65058" transform="matrix(1 -1.86243e-05 3.15988e-05 1 27 52.8072)" fill="white"/>
</svg>
