<svg width="130" height="130" viewBox="0 0 130 130" fill="none" xmlns="http://www.w3.org/2000/svg">
<path d="M130 65C130 100.899 100.899 130 65 130C29.1015 130 0 100.899 0 65C0 29.1015 29.1015 0 65 0C100.899 0 130 29.1015 130 65Z" fill="#8247E5"/>
<path d="M82.4753 53.6936C81.1064 52.8869 79.3272 52.8869 77.8218 53.6936L67.1455 59.8781L59.8913 63.9116L49.2154 70.096C47.8466 70.9027 46.0673 70.9027 44.5617 70.096L36.0756 65.2558C34.7069 64.4492 33.7488 62.9704 33.7488 61.357V51.8113C33.7488 50.1979 34.57 48.719 36.0756 47.9123L44.4248 43.2067C45.7935 42.4 47.5729 42.4 49.0785 43.2067L57.4277 47.9123C58.7963 48.719 59.7545 50.1979 59.7545 51.8113V57.9959L67.0087 53.828V47.6435C67.0087 46.0301 66.1876 44.5512 64.6819 43.7445L49.2154 34.871C47.8466 34.0643 46.0673 34.0643 44.5617 34.871L28.8214 43.7445C27.3158 44.5512 26.4946 46.0301 26.4946 47.6435V65.5249C26.4946 67.1382 27.3158 68.6173 28.8214 69.4239L44.5617 78.2974C45.9304 79.104 47.7098 79.104 49.2154 78.2974L59.8913 72.2472L67.1455 68.0794L77.8218 62.0293C79.1903 61.2226 80.9696 61.2226 82.4753 62.0293L90.8245 66.7349C92.1931 67.5415 93.1513 69.0206 93.1513 70.6339V80.1795C93.1513 81.7931 92.3302 83.2718 90.8245 84.0785L82.4753 88.9187C81.1064 89.7253 79.3272 89.7253 77.8218 88.9187L69.4726 84.213C68.1037 83.4064 67.1455 81.9273 67.1455 80.314V74.1296L59.8913 78.2974V84.4818C59.8913 86.0951 60.7127 87.5742 62.2181 88.3808L77.9586 97.2543C79.3272 98.0609 81.1064 98.0609 82.6121 97.2543L98.3526 88.3808C99.7212 87.5742 100.679 86.0951 100.679 84.4818V66.6004C100.679 64.9871 99.858 63.5083 98.3526 62.7016L82.4753 53.6936Z" fill="white"/>
</svg>
