<svg width="130" height="130" viewBox="0 0 130 130" fill="none" xmlns="http://www.w3.org/2000/svg">
<path d="M65 130C101.021 130 130 101.021 130 65C130 28.979 101.021 0 65 0C28.979 0 0 28.979 0 65C0 101.021 28.979 130 65 130Z" fill="#2775CA"/>
<path d="M82.875 75.2914C82.875 65.8125 77.1875 62.5625 65.8125 61.2085C57.6875 60.125 56.0625 57.9585 56.0625 54.1664C56.0625 50.3743 58.771 47.9375 64.1875 47.9375C69.0625 47.9375 71.771 49.5625 73.125 53.625C73.396 54.4375 74.2085 54.9789 75.021 54.9789H79.3539C80.4375 54.9789 81.25 54.1664 81.25 53.0835V52.8125C80.1664 46.8539 75.2914 42.25 69.0625 41.7085V35.2085C69.0625 34.125 68.25 33.3125 66.896 33.0414H62.8335C61.75 33.0414 60.9375 33.8539 60.6664 35.2085V41.4375C52.5414 42.521 47.396 47.9375 47.396 54.7085C47.396 63.646 52.8125 67.1664 64.1875 68.521C71.771 69.875 74.2085 71.5 74.2085 75.8335C74.2085 80.1671 70.4164 83.146 65.271 83.146C58.2289 83.146 55.7914 80.1664 54.9789 76.1039C54.7085 75.021 53.896 74.4789 53.0835 74.4789H48.4789C47.396 74.4789 46.5835 75.2914 46.5835 76.375V76.646C47.6664 83.4164 52 88.2914 60.9375 89.646V96.146C60.9375 97.2289 61.75 98.0414 63.1039 98.3125H67.1664C68.25 98.3125 69.0625 97.5 69.3335 96.146V89.646C77.4585 88.2914 82.875 82.6039 82.875 75.2914Z" fill="white"/>
<path fill-rule="evenodd" clip-rule="evenodd" d="M27.0835 51.729C19.2289 72.5836 30.0625 96.1461 51.1875 103.729C52 104.271 52.8125 105.354 52.8125 106.166V109.959C52.8125 110.5 52.8125 110.771 52.5414 111.041C52.271 112.125 51.1875 112.666 50.1039 112.125C34.9375 107.25 23.2914 95.604 18.4164 80.4375C10.2914 54.7086 24.375 27.354 50.1039 19.229C50.375 18.9586 50.9164 18.9586 51.1875 18.9586C52.271 19.229 52.8125 20.0415 52.8125 21.125V24.9165C52.8125 26.2711 52.271 27.0836 51.1875 27.625C40.0835 31.6875 31.146 40.354 27.0835 51.729ZM77.4585 20.3125C77.7289 19.2289 78.8125 18.6875 79.896 19.2289C94.7914 24.1039 106.709 35.75 111.584 51.1875C119.709 76.9164 105.625 104.271 79.896 112.396C79.625 112.666 79.0835 112.666 78.8125 112.666C77.7289 112.396 77.1875 111.584 77.1875 110.5V106.709C77.1875 105.354 77.7289 104.541 78.8125 104C89.9164 99.9375 98.8539 91.271 102.916 79.896C110.771 59.0414 99.9375 35.4789 78.8125 27.896C78 27.3539 77.1875 26.271 77.1875 25.1875V21.396C77.1875 20.8539 77.1875 20.5835 77.4585 20.3125Z" fill="white"/>
</svg>
