<svg width="124" height="124" viewBox="0 0 124 124" fill="none" xmlns="http://www.w3.org/2000/svg">
<path d="M124 62C124 96.2417 96.2417 124 62 124C27.7583 124 0 96.2417 0 62C0 27.7583 27.7583 0 62 0C96.2417 0 124 27.7583 124 62Z" fill="white"/>
<path d="M103.001 24.2821L99.432 27.8516C107.949 37.1659 112.673 49.3305 112.673 61.9519C112.673 74.5734 107.949 86.7379 99.432 96.0522L103.001 99.6217C112.474 89.3473 117.732 75.8847 117.732 61.9103C117.732 47.9359 112.474 34.4732 103.001 24.1989V24.2821Z" fill="#5A5564"/>
<path d="M27.9358 24.5913C37.2501 16.074 49.4146 11.3507 62.0361 11.3507C74.6575 11.3507 86.8221 16.074 96.1364 24.5913L99.7058 21.0219C89.4315 11.5497 75.9688 6.29083 61.9944 6.29083C48.02 6.29083 34.5574 11.5497 24.283 21.0219L27.9358 24.5913Z" fill="#5A5564"/>
<path d="M24.5929 96.0881C16.0856 86.7759 11.3685 74.6187 11.3685 62.0056C11.3685 49.3925 16.0856 37.2354 24.5929 27.9232L21.0234 24.3537C11.5512 34.628 6.29236 48.0907 6.29236 62.0651C6.29236 76.0395 11.5512 89.5022 21.0234 99.7765L24.5929 96.0881Z" fill="#5A5564"/>
<path d="M96.087 99.3845C86.7727 107.902 74.6081 112.625 61.9867 112.625C49.3652 112.625 37.2007 107.902 27.8864 99.3845L24.3169 102.954C34.5912 112.426 48.0539 117.685 62.0283 117.685C76.0027 117.685 89.4654 112.426 99.7397 102.954L96.087 99.3845Z" fill="#5A5564"/>
<path d="M84.5366 50.0899C83.8227 42.6416 77.3977 40.1429 69.2712 39.3815V29.1252H62.989V39.1911C61.3351 39.1911 59.6456 39.1911 57.9679 39.1911V29.1252H51.7332V39.4528H38.9902V46.1753C38.9902 46.1753 43.6305 46.0921 43.5592 46.1753C44.3958 46.0833 45.2356 46.3196 45.9014 46.8346C46.5673 47.3495 47.0073 48.1028 47.1286 48.9357V77.2059C47.1107 77.4997 47.0341 77.7868 46.9033 78.0505C46.7726 78.3141 46.5902 78.5488 46.3671 78.7408C46.1482 78.9364 45.892 79.0857 45.614 79.1797C45.3359 79.2738 45.0417 79.3107 44.749 79.2881C44.8323 79.3595 40.1801 79.2881 40.1801 79.2881L38.9902 86.7959H51.6143V97.2901H57.8965V86.9505H62.9176V97.2425H69.2117V86.8673C79.8249 86.2248 87.2256 83.6072 88.1537 73.6721C88.9033 65.6765 85.1434 62.1071 79.1348 60.6674C82.7876 58.8707 85.0483 55.5392 84.5366 50.0899ZM75.7319 72.4347C75.7319 80.24 62.3583 79.3476 58.0988 79.3476V65.4981C62.3583 65.5099 75.7319 64.2844 75.7319 72.4347ZM72.8169 52.9216C72.8169 60.0606 61.6564 59.192 58.1107 59.192V46.6037C61.6564 46.6037 72.8169 45.4852 72.8169 52.9216Z" fill="#F09242"/>
</svg>
