<svg width="11" height="12" viewBox="0 0 11 12" fill="none" xmlns="http://www.w3.org/2000/svg">
<path fill-rule="evenodd" clip-rule="evenodd" d="M4.51961 2.31937C4.52175 2.29909 4.52282 2.28895 4.52399 2.28018C4.56618 1.96393 4.83166 1.72505 5.15059 1.71637C5.15943 1.71613 5.16963 1.71613 5.19003 1.71613H5.81008C5.83053 1.71613 5.84075 1.71613 5.84962 1.71637C6.16852 1.72508 6.43396 1.96392 6.47616 2.28013C6.47734 2.28893 6.47841 2.29909 6.48056 2.31943V2.31943C6.48451 2.35674 6.48648 2.37539 6.48834 2.38812C6.55856 2.86912 7.1126 3.10567 7.50856 2.8237C7.51904 2.81624 7.53388 2.80477 7.56355 2.78181L7.61285 2.74368C7.65049 2.71457 7.66931 2.70001 7.68662 2.68832C7.92604 2.52658 8.24349 2.5423 8.46577 2.7269C8.48183 2.74025 8.49912 2.75659 8.5337 2.78928L8.94351 3.1767C9.19273 3.41232 9.21227 3.80239 8.98783 4.06172V4.06172C8.64695 4.45559 8.89348 5.07002 9.41206 5.11904L9.47391 5.12489C9.49329 5.12672 9.50298 5.12764 9.51135 5.12865C9.83145 5.16731 10.0748 5.43479 10.0832 5.75711C10.0834 5.76553 10.0834 5.77527 10.0834 5.79473V6.30354C10.0834 6.32295 10.0834 6.33266 10.0832 6.34106C10.0749 6.66342 9.83145 6.93093 9.5113 6.96957C9.50296 6.97058 9.4933 6.97149 9.47397 6.97332L9.41208 6.97917C8.89356 7.02819 8.64706 7.64254 8.9879 8.03636V8.03636C9.21231 8.29566 9.19278 8.68569 8.94358 8.92127L8.53372 9.30874C8.49914 9.34143 8.48186 9.35778 8.46579 9.37112C8.24351 9.55573 7.92606 9.57145 7.68664 9.40971C7.66933 9.39801 7.65051 9.38346 7.61287 9.35435L7.56368 9.31629C7.53391 9.29327 7.51903 9.28176 7.50852 9.27428C7.11258 8.9924 6.55864 9.2289 6.48837 9.70983C6.48651 9.72259 6.48453 9.7413 6.48057 9.77873V9.77873C6.47841 9.79912 6.47734 9.80932 6.47616 9.81814C6.43393 10.1343 6.16853 10.3731 5.84968 10.3818C5.84078 10.3821 5.83053 10.3821 5.81002 10.3821H5.19009C5.16964 10.3821 5.15941 10.3821 5.15053 10.3818C4.83164 10.3731 4.56621 10.1343 4.524 9.81809C4.52283 9.80929 4.52175 9.79912 4.5196 9.77878V9.77878C4.51565 9.74146 4.51368 9.7228 4.51182 9.71006C4.44159 9.22907 3.88757 8.99253 3.49161 9.27448C3.48113 9.28195 3.46628 9.29343 3.4366 9.31639L3.38729 9.35453C3.34964 9.38365 3.33081 9.39821 3.3135 9.40991C3.07408 9.57164 2.75664 9.55592 2.53437 9.37133C2.5183 9.35798 2.501 9.34163 2.46642 9.30893L2.05662 8.92152C1.80739 8.68591 1.78786 8.29583 2.0123 8.0365V8.0365C2.35318 7.64262 2.10665 7.0282 1.58807 6.97917L1.52624 6.97333C1.50687 6.97149 1.49718 6.97058 1.48882 6.96957C1.16871 6.93091 0.925322 6.66343 0.916966 6.3411C0.916748 6.33268 0.916748 6.32295 0.916748 6.30349V5.79478C0.916748 5.77527 0.916748 5.76551 0.916967 5.75707C0.925345 5.43478 1.1687 5.16733 1.48878 5.12865C1.49716 5.12764 1.50687 5.12672 1.5263 5.12489L1.58808 5.11904C2.10673 5.07001 2.3533 4.45551 2.01237 4.06158V4.06158C1.7879 3.80222 1.80744 3.4121 2.0567 3.17645L2.46644 2.78909C2.50102 2.7564 2.51832 2.74005 2.53439 2.7267C2.75666 2.5421 3.0741 2.52638 3.31352 2.68812C3.33084 2.69981 3.34966 2.71437 3.38731 2.74349L3.43672 2.78171C3.46632 2.80461 3.48112 2.81605 3.49157 2.8235C3.88755 3.10553 4.44167 2.86895 4.51185 2.38789C4.5137 2.37519 4.51567 2.35658 4.51961 2.31937V2.31937ZM5.50008 7.7823C6.5126 7.7823 7.33342 7.00632 7.33342 6.04911C7.33342 5.09189 6.5126 4.31592 5.50008 4.31592C4.48756 4.31592 3.66675 5.09189 3.66675 6.04911C3.66675 7.00632 4.48756 7.7823 5.50008 7.7823Z" fill="white"/>
<path d="M3.43672 2.78171L3.43366 2.78566L3.43672 2.78171ZM3.49157 2.8235L3.49447 2.81942L3.49157 2.8235ZM4.51185 2.38789L4.5168 2.38861L4.51185 2.38789ZM2.46644 2.78909L2.463 2.78546L2.46644 2.78909ZM2.53439 2.7267L2.5312 2.72285L2.53439 2.7267ZM3.38731 2.74349L3.38425 2.74745L3.38731 2.74349ZM3.31352 2.68812L3.31072 2.69226L3.31352 2.68812ZM0.916967 5.75707L0.921966 5.7572L0.916967 5.75707ZM1.5263 5.12489L1.52677 5.12986L1.5263 5.12489ZM1.48878 5.12865L1.48938 5.13362L1.48878 5.12865ZM1.52624 6.97333L1.52577 6.9783L1.52624 6.97333ZM1.48882 6.96957L1.48942 6.9646L1.48882 6.96957ZM0.916966 6.3411L0.911968 6.34123L0.916966 6.3411ZM1.58807 6.97917L1.5876 6.98415L1.58807 6.97917ZM3.38729 9.35453L3.39035 9.35849L3.38729 9.35453ZM3.3135 9.40991L3.3107 9.40577L3.3135 9.40991ZM2.46642 9.30893L2.46298 9.31256L2.46642 9.30893ZM2.53437 9.37133L2.53756 9.36748L2.53437 9.37133ZM4.51182 9.71006L4.50687 9.71079L4.51182 9.71006ZM3.4366 9.31639L3.43965 9.32035L3.4366 9.31639ZM3.49161 9.27448L3.48871 9.27041L3.49161 9.27448ZM5.15053 10.3818L5.1504 10.3868L5.15053 10.3818ZM4.524 9.81809L4.51904 9.81876L4.524 9.81809ZM6.47616 9.81814L6.48111 9.8188L6.47616 9.81814ZM5.84968 10.3818L5.84981 10.3868L5.84968 10.3818ZM7.56368 9.31629L7.56674 9.31234L7.56368 9.31629ZM7.50852 9.27428L7.51142 9.2702L7.50852 9.27428ZM6.48837 9.70983L6.48343 9.7091L6.48837 9.70983ZM8.53372 9.30874L8.53716 9.31238L8.53372 9.30874ZM8.46579 9.37112L8.46259 9.36728L8.46579 9.37112ZM7.61287 9.35435L7.61593 9.35039L7.61287 9.35435ZM7.68664 9.40971L7.68384 9.41385L7.68664 9.40971ZM8.94358 8.92127L8.94015 8.91763L8.94358 8.92127ZM9.41208 6.97917L9.41161 6.97419L9.41208 6.97917ZM10.0832 6.34106L10.0882 6.34119L10.0882 6.34119L10.0832 6.34106ZM9.47397 6.97332L9.47444 6.9783L9.47397 6.97332ZM9.5113 6.96957L9.5119 6.97454L9.5113 6.96957ZM9.51135 5.12865L9.51195 5.12369L9.51135 5.12865ZM10.0832 5.75711L10.0782 5.75724L10.0832 5.75711ZM9.41206 5.11904L9.41159 5.12402L9.41206 5.11904ZM8.94351 3.1767L8.94694 3.17307L8.94351 3.1767ZM7.61285 2.74368L7.61591 2.74763L7.61285 2.74368ZM7.68662 2.68832L7.68941 2.69246L7.68662 2.68832ZM8.5337 2.78928L8.53713 2.78565L8.5337 2.78928ZM8.46577 2.7269L8.46257 2.73075L8.46577 2.7269ZM6.48834 2.38812L6.49329 2.3874L6.48834 2.38812ZM7.56355 2.78181L7.56661 2.78577L7.56355 2.78181ZM7.50856 2.8237L7.50566 2.81963L7.50566 2.81963L7.50856 2.8237ZM5.15059 1.71637L5.15045 1.71137L5.15059 1.71637ZM4.52399 2.28018L4.51904 2.27951L4.52399 2.28018ZM6.47616 2.28013L6.48112 2.27947L6.47616 2.28013ZM5.81008 1.71113H5.19003V1.72113H5.81008V1.71113ZM7.60979 2.73972L7.5605 2.77786L7.56661 2.78577L7.61591 2.74763L7.60979 2.73972ZM8.94694 3.17307L8.53713 2.78565L8.53026 2.79291L8.94007 3.18034L8.94694 3.17307ZM9.47438 5.11991L9.41253 5.11407L9.41159 5.12402L9.47344 5.12987L9.47438 5.11991ZM10.0884 6.30354V5.79473H10.0784V6.30354H10.0884ZM9.41255 6.98415L9.47444 6.9783L9.4735 6.96834L9.41161 6.97419L9.41255 6.98415ZM8.53716 9.31238L8.94702 8.9249L8.94015 8.91763L8.53029 9.30511L8.53716 9.31238ZM7.56062 9.32025L7.60981 9.3583L7.61593 9.35039L7.56674 9.31234L7.56062 9.32025ZM5.19009 10.3871H5.81002V10.3771H5.19009V10.3871ZM3.39035 9.35849L3.43965 9.32035L3.43354 9.31244L3.38423 9.35058L3.39035 9.35849ZM2.05319 8.92515L2.46298 9.31256L2.46985 9.3053L2.06006 8.91789L2.05319 8.92515ZM1.52577 6.9783L1.5876 6.98415L1.58854 6.97419L1.52671 6.96835L1.52577 6.9783ZM0.911748 5.79478V6.30349H0.921748V5.79478H0.911748ZM1.58761 5.11407L1.52583 5.11991L1.52677 5.12986L1.58855 5.12402L1.58761 5.11407ZM2.463 2.78546L2.05326 3.17282L2.06013 3.18009L2.46987 2.79273L2.463 2.78546ZM3.43978 2.77776L3.39037 2.73954L3.38425 2.74745L3.43366 2.78566L3.43978 2.77776ZM7.32842 6.04911C7.32842 7.0033 6.51011 7.7773 5.50008 7.7773V7.7873C6.5151 7.7873 7.33842 7.00935 7.33842 6.04911H7.32842ZM5.50008 4.32092C6.51011 4.32092 7.32842 5.09491 7.32842 6.04911H7.33842C7.33842 5.08887 6.5151 4.31092 5.50008 4.31092V4.32092ZM3.67175 6.04911C3.67175 5.09491 4.49005 4.32092 5.50008 4.32092V4.31092C4.48507 4.31092 3.66175 5.08887 3.66175 6.04911H3.67175ZM5.50008 7.7773C4.49005 7.7773 3.67175 7.0033 3.67175 6.04911H3.66175C3.66175 7.00935 4.48507 7.7873 5.50008 7.7873V7.7773ZM3.43366 2.78566C3.46321 2.80852 3.47811 2.82005 3.48867 2.82757L3.49447 2.81942C3.48412 2.81205 3.46942 2.80069 3.43978 2.77776L3.43366 2.78566ZM4.51463 2.31884C4.51069 2.35612 4.50873 2.37459 4.5069 2.38716L4.5168 2.38861C4.51867 2.37579 4.52065 2.35705 4.52458 2.3199L4.51463 2.31884ZM3.48867 2.82757C3.88769 3.11177 4.44608 2.87337 4.5168 2.38861L4.5069 2.38716C4.43727 2.86453 3.8874 3.09929 3.49447 2.81942L3.48867 2.82757ZM2.46987 2.79273C2.50451 2.75998 2.52167 2.74377 2.53759 2.73055L2.5312 2.72285C2.51497 2.73633 2.49754 2.75281 2.463 2.78546L2.46987 2.79273ZM3.39037 2.73954C3.35278 2.71046 3.3338 2.69578 3.31632 2.68397L3.31072 2.69226C3.32787 2.70384 3.34654 2.71828 3.38425 2.74745L3.39037 2.73954ZM2.53759 2.73055C2.75815 2.54737 3.07314 2.53177 3.31072 2.69226L3.31632 2.68397C3.07506 2.521 2.75518 2.53684 2.5312 2.72285L2.53759 2.73055ZM2.01615 4.05831C1.79344 3.80097 1.81282 3.41389 2.06013 3.18009L2.05326 3.17282C1.80206 3.4103 1.78237 3.80347 2.00859 4.06486L2.01615 4.05831ZM1.58855 5.12402C2.11125 5.07461 2.35974 4.45531 2.01615 4.05831L2.00859 4.06486C2.34686 4.45571 2.10222 5.06542 1.58761 5.11407L1.58855 5.12402ZM0.921748 5.79478C0.921748 5.77524 0.921748 5.76556 0.921966 5.7572L0.911969 5.75694C0.911748 5.76547 0.911748 5.7753 0.911748 5.79478H0.921748ZM1.52583 5.11991C1.50643 5.12174 1.49664 5.12267 1.48818 5.12369L1.48938 5.13362C1.49768 5.13261 1.50731 5.1317 1.52677 5.12986L1.52583 5.11991ZM0.921966 5.7572C0.930278 5.43739 1.17176 5.17199 1.48938 5.13362L1.48818 5.12369C1.16564 5.16266 0.920411 5.43217 0.911969 5.75694L0.921966 5.7572ZM1.52671 6.96835C1.50731 6.96651 1.4977 6.9656 1.48942 6.9646L1.48822 6.97453C1.49667 6.97555 1.50643 6.97647 1.52577 6.9783L1.52671 6.96835ZM0.911748 6.30349C0.911748 6.32292 0.911748 6.33273 0.911968 6.34123L0.921965 6.34097C0.921748 6.33263 0.921748 6.32298 0.921748 6.30349H0.911748ZM1.48942 6.9646C1.17177 6.92625 0.930256 6.66082 0.921965 6.34097L0.911968 6.34123C0.920388 6.66604 1.16565 6.93558 1.48822 6.97453L1.48942 6.9646ZM2.01608 8.03977C2.35962 7.64282 2.11117 7.0236 1.58854 6.97419L1.5876 6.98415C2.10214 7.03279 2.34674 7.64243 2.00852 8.03323L2.01608 8.03977ZM2.06006 8.91789C1.81277 8.68411 1.79339 8.29708 2.01608 8.03977L2.00852 8.03323C1.78233 8.29458 1.80202 8.6877 2.05319 8.92515L2.06006 8.91789ZM3.38423 9.35058C3.34652 9.37974 3.32785 9.39418 3.3107 9.40577L3.3163 9.41405C3.33378 9.40225 3.35276 9.38756 3.39035 9.35849L3.38423 9.35058ZM2.46298 9.31256C2.49752 9.34521 2.51495 9.3617 2.53118 9.37517L2.53756 9.36748C2.52165 9.35426 2.50449 9.33805 2.46985 9.3053L2.46298 9.31256ZM3.3107 9.40577C3.07312 9.56625 2.75813 9.55066 2.53756 9.36748L2.53118 9.37517C2.75516 9.56119 3.07504 9.57703 3.3163 9.41405L3.3107 9.40577ZM4.52457 9.77826C4.52063 9.74099 4.51864 9.7222 4.51677 9.70934L4.50687 9.71079C4.50871 9.72339 4.51067 9.74192 4.51463 9.77931L4.52457 9.77826ZM3.43965 9.32035C3.46939 9.29735 3.48413 9.28595 3.49451 9.27856L3.48871 9.27041C3.47812 9.27795 3.46318 9.28951 3.43354 9.31244L3.43965 9.32035ZM4.51677 9.70934C4.446 9.22465 3.88772 8.98629 3.48871 9.27041L3.49451 9.27856C3.88742 8.99878 4.43719 9.2335 4.50687 9.71079L4.51677 9.70934ZM5.19009 10.3771C5.1696 10.3771 5.15946 10.3771 5.15067 10.3769L5.1504 10.3868C5.15936 10.3871 5.16967 10.3871 5.19009 10.3871V10.3771ZM4.51463 9.77931C4.51677 9.79962 4.51786 9.80987 4.51904 9.81876L4.52896 9.81743C4.52779 9.80872 4.52673 9.79863 4.52457 9.77826L4.51463 9.77931ZM5.15067 10.3769C4.83423 10.3682 4.57084 10.1312 4.52896 9.81743L4.51904 9.81876C4.56158 10.1374 4.82906 10.3781 5.1504 10.3868L5.15067 10.3769ZM6.4756 9.7782C6.47344 9.79863 6.47237 9.80874 6.4712 9.81748L6.48111 9.8188C6.4823 9.80989 6.48339 9.79961 6.48554 9.77925L6.4756 9.7782ZM5.81002 10.3871C5.83049 10.3871 5.84083 10.3871 5.84981 10.3868L5.84954 10.3768C5.84073 10.3771 5.83056 10.3771 5.81002 10.3771V10.3871ZM6.4712 9.81748C6.4293 10.1312 6.16594 10.3682 5.84954 10.3768L5.84981 10.3868C6.17112 10.378 6.43856 10.1374 6.48111 9.8188L6.4712 9.81748ZM7.56674 9.31234C7.53702 9.28935 7.52203 9.27776 7.51142 9.2702L7.50562 9.27835C7.51603 9.28576 7.5308 9.29719 7.56062 9.32025L7.56674 9.31234ZM6.48554 9.77925C6.48951 9.74177 6.49148 9.72319 6.49332 9.71055L6.48343 9.7091C6.48154 9.72199 6.47955 9.74084 6.4756 9.7782L6.48554 9.77925ZM7.51142 9.2702C7.11243 8.98616 6.55423 9.22448 6.48343 9.7091L6.49332 9.71055C6.56305 9.23333 7.11272 8.99864 7.50562 9.27835L7.51142 9.2702ZM8.53029 9.30511C8.49566 9.33785 8.47851 9.35406 8.46259 9.36728L8.46898 9.37497C8.4852 9.3615 8.50263 9.34502 8.53716 9.31238L8.53029 9.30511ZM7.60981 9.3583C7.64739 9.38737 7.66636 9.40205 7.68384 9.41385L7.68944 9.40556C7.67229 9.39398 7.65363 9.37955 7.61593 9.35039L7.60981 9.3583ZM8.46259 9.36728C8.24203 9.55046 7.92702 9.56606 7.68944 9.40556L7.68384 9.41385C7.92511 9.57684 8.245 9.56099 8.46898 9.37497L8.46259 9.36728ZM8.98412 8.03963C9.20678 8.29691 9.1874 8.68389 8.94015 8.91763L8.94702 8.9249C9.19816 8.68748 9.21784 8.29441 8.99168 8.03309L8.98412 8.03963ZM9.41161 6.97419C8.88904 7.0236 8.64062 7.64274 8.98412 8.03963L8.99168 8.03309C8.6535 7.64234 8.89808 7.03279 9.41255 6.98415L9.41161 6.97419ZM10.0784 6.30354C10.0784 6.32298 10.0784 6.33261 10.0782 6.34093L10.0882 6.34119C10.0884 6.33271 10.0884 6.32292 10.0884 6.30354H10.0784ZM9.47444 6.9783C9.49374 6.97647 9.50348 6.97555 9.5119 6.97454L9.5107 6.96461C9.50244 6.96561 9.49285 6.96651 9.4735 6.96834L9.47444 6.9783ZM10.0782 6.34093C10.0699 6.66081 9.82838 6.92627 9.5107 6.96461L9.5119 6.97454C9.83451 6.9356 10.0798 6.66603 10.0882 6.34119L10.0782 6.34093ZM9.47344 5.12987C9.49285 5.1317 9.50246 5.13261 9.51075 5.13361L9.51195 5.12369C9.5035 5.12267 9.49373 5.12174 9.47438 5.11991L9.47344 5.12987ZM10.0884 5.79473C10.0884 5.7753 10.0884 5.76548 10.0882 5.75698L10.0782 5.75724C10.0784 5.76558 10.0784 5.77524 10.0784 5.79473H10.0884ZM9.51075 5.13361C9.82839 5.17198 10.0699 5.43739 10.0782 5.75724L10.0882 5.75698C10.0798 5.43218 9.83452 5.16264 9.51195 5.12369L9.51075 5.13361ZM8.98405 4.05845C8.64051 4.45539 8.88896 5.07461 9.41159 5.12402L9.41253 5.11407C8.89799 5.06542 8.65339 4.45579 8.99161 4.06499L8.98405 4.05845ZM8.94007 3.18034C9.18735 3.41411 9.20673 3.80114 8.98405 4.05845L8.99161 4.06499C9.2178 3.80364 9.19811 3.41052 8.94694 3.17307L8.94007 3.18034ZM7.61591 2.74763C7.65361 2.71848 7.67227 2.70404 7.68941 2.69246L7.68382 2.68418C7.66634 2.69598 7.64737 2.71066 7.60979 2.73972L7.61591 2.74763ZM8.53713 2.78565C8.50261 2.75301 8.48518 2.73653 8.46896 2.72306L8.46257 2.73075C8.47849 2.74397 8.49563 2.76017 8.53026 2.79291L8.53713 2.78565ZM7.68941 2.69246C7.927 2.53196 8.24201 2.54756 8.46257 2.73075L8.46896 2.72306C8.24498 2.53703 7.92508 2.52119 7.68382 2.68418L7.68941 2.69246ZM6.47559 2.31995C6.47953 2.3572 6.48152 2.37599 6.4834 2.38884L6.49329 2.3874C6.49145 2.3748 6.48949 2.35627 6.48554 2.3189L6.47559 2.31995ZM7.5605 2.77786C7.53077 2.80085 7.51603 2.81224 7.50566 2.81963L7.51146 2.82778C7.52204 2.82024 7.53698 2.80868 7.56661 2.78577L7.5605 2.77786ZM6.4834 2.38884C6.55415 2.87354 7.11245 3.11191 7.51146 2.82778L7.50566 2.81963C7.11274 3.09942 6.56297 2.8647 6.49329 2.3874L6.4834 2.38884ZM5.19003 1.71113C5.16966 1.71113 5.15938 1.71113 5.15045 1.71137L5.15072 1.72136C5.15949 1.72113 5.1696 1.72113 5.19003 1.72113V1.71113ZM4.52458 2.3199C4.52673 2.29958 4.52779 2.28953 4.52895 2.28084L4.51904 2.27951C4.51786 2.28837 4.51678 2.29859 4.51463 2.31884L4.52458 2.3199ZM5.15045 1.71137C4.82907 1.72012 4.56155 1.96084 4.51904 2.27951L4.52895 2.28084C4.57081 1.96702 4.83425 1.72999 5.15072 1.72136L5.15045 1.71137ZM5.81008 1.72113C5.83056 1.72113 5.8407 1.72113 5.84949 1.72137L5.84976 1.71137C5.8408 1.71113 5.8305 1.71113 5.81008 1.71113V1.72113ZM6.48554 2.3189C6.48339 2.2986 6.48231 2.28835 6.48112 2.27947L6.47121 2.28079C6.47237 2.2895 6.47344 2.29959 6.47559 2.31995L6.48554 2.3189ZM5.84949 1.72137C6.16593 1.73001 6.42933 1.96701 6.47121 2.28079L6.48112 2.27947C6.43859 1.96083 6.17111 1.72015 5.84976 1.71137L5.84949 1.72137Z" fill="white"/>
</svg>
