<svg width="328" height="403" viewBox="0 0 328 403" fill="none" xmlns="http://www.w3.org/2000/svg">
<g clip-path="url(#clip0_839_3243)">
<path d="M517.059 -5.16895H-1.89209V400.704H517.059V-5.16895Z" fill="black" stroke="#FF0000" stroke-width="1.00963"/>
<path d="M419.644 85.4265C389.059 104.609 311.055 171.15 220.806 130.088C109.1 79.2644 85.6554 89.3724 13.4387 123.128M414.614 59.9427C386.892 95.3592 308.846 159.383 218.445 120.089C105.442 70.9726 83.5129 83.9429 11.6927 119.56M411.315 42.7543C384.007 79.09 306.74 146.638 216.128 110.069C102.863 64.3589 81.1095 78.0298 9.79768 115.929M407.944 30.5345C381.064 67.7877 304.607 133.844 213.811 100.041C100.316 57.7877 78.7482 72.1624 7.9725 112.357M403.974 11.5842C377.636 49.9556 302.214 119.107 211.23 88.7383C97.5005 50.7781 76.1707 66.0169 6.08873 109.031M398.857 -12.3739C373.258 27.456 299.269 100.672 208.103 74.8931C94.1459 42.6701 73.1489 59.0462 4.04187 105.779M393.421 -37.104C368.646 4.26424 296.277 81.8029 205.002 61.0107C90.9081 35.0205 70.291 52.6106 2.3041 103.318M388.473 -58.7148C364.405 -16.0928 293.445 64.9987 202.148 48.3882C88.0274 27.6252 67.7434 46.2161 0.744274 100.205M382.121 -85.6551C359.012 -41.4244 289.986 44.2683 198.758 33.1929C84.7228 19.3487 64.8999 39.2404 -0.724682 97.5018M374.253 -117.619C352.355 -71.4924 285.81 19.6918 194.817 15.4106C81.0752 10.059 61.8494 31.5101 -1.98433 94.9059M364.878 -153.791C344.403 -105.613 280.821 -8.39758 190.294 -4.95905C77.135 -0.660866 58.6291 22.5129 -3.03189 91.596M351.669 -201.624C333.211 -150.831 273.909 -45.756 184.359 -31.8025C72.421 -14.3607 54.9665 11.0748 -3.49908 87.6539M-27.7288 168.688C0.324579 134.026 78.9838 75.0757 169.194 116.573C281.958 168.445 304.025 156.047 376.242 122.291M-24.9335 182.463C2.78905 147.046 80.8344 86.0362 171.236 125.33C284.238 174.446 306.168 161.476 377.988 125.859M-21.6337 198.646C5.67367 162.311 82.9412 98.7814 173.553 135.35C286.818 181.06 308.571 167.389 379.883 129.49M-18.2628 214.885C8.61643 177.632 85.0737 111.576 175.87 145.378C289.365 187.631 310.933 173.257 381.708 133.062M-14.2934 233.835C12.0446 195.463 87.4667 126.313 178.451 156.681C292.18 194.641 313.51 179.402 383.592 136.388M-9.17586 257.793C16.4229 217.963 90.4119 144.748 181.578 170.526C295.535 202.749 316.532 186.373 385.639 139.64M-3.74028 282.523C21.0348 241.155 93.4038 163.616 184.679 184.408C298.773 210.399 319.39 192.808 387.377 142.101M1.20781 310.79C25.2758 268.168 96.2361 180.421 187.533 197.031C301.653 217.794 321.937 199.203 388.937 145.214M11.6927 337.102C34.8022 292.871 99.6952 201.151 190.923 212.226C304.958 226.07 324.781 206.179 390.406 147.917M15.4281 363.039C37.3261 316.912 103.871 225.727 194.864 230.009C308.606 235.36 327.831 213.909 391.665 150.513M24.8026 399.211C45.2776 351.032 108.86 253.817 199.387 250.378C312.546 246.08 331.052 222.906 392.713 153.823M36.9672 443.289C55.5461 392.645 115.109 288.022 204.728 274.69C316.752 258.024 334.271 232.72 392.933 156.575M417.729 85.006C387.144 104.188 309.141 163.697 218.891 122.635C107.186 71.8116 83.7405 81.9197 11.5238 115.675M412.699 55.5038C384.977 90.9202 306.932 151.93 216.53 112.637C103.528 63.5197 81.598 76.49 9.77784 112.107M409.4 39.3201C382.092 75.6557 304.825 139.185 214.213 102.617C100.948 56.9061 79.1946 70.5769 7.8828 108.476M406.029 23.0815C379.15 60.3347 302.692 126.391 211.896 92.588C98.4013 50.3348 76.8333 64.7095 6.05761 104.904M402.059 4.13136C375.721 42.5028 300.299 111.654 209.315 81.2856C95.5856 43.3253 74.2558 58.564 4.17385 101.579M396.942 -19.8268C371.343 20.0033 297.354 93.2186 206.188 67.4402C92.231 35.2173 71.234 51.5934 2.127 98.326M391.506 -44.5569C366.731 -3.18862 294.362 74.3501 203.087 53.5579C88.9933 27.5677 68.3761 45.1577 0.389227 95.8648M386.558 -66.1677C362.49 -23.5457 291.53 57.5457 200.233 40.9353C86.1125 20.1723 65.8285 38.7634 -1.1706 92.7523M380.206 -93.108C357.097 -48.8772 288.071 36.8154 196.843 25.7401C82.808 11.8958 62.985 31.7875 -2.63955 90.049M372.338 -125.072C350.44 -78.9453 283.895 12.2389 192.902 7.95766C79.1603 2.6061 59.9345 24.0573 -3.89922 87.4531M362.963 -161.244C342.488 -113.066 278.906 -15.8505 188.379 -12.4118C75.2201 -8.1137 56.7142 15.0601 -4.94675 84.1432M349.754 -209.077C331.296 -158.284 271.995 -53.2089 182.444 -39.2554C70.5061 -21.8136 53.0516 3.62204 -5.41397 80.201M-29.6436 161.235C-1.59029 126.573 77.0689 67.6228 167.28 109.12C280.043 160.992 302.111 148.594 374.327 114.839M-26.8484 175.01C0.874166 139.593 78.9195 78.5834 169.321 117.877C282.324 166.994 304.253 154.023 376.073 118.407M-23.5486 191.193C3.75879 154.858 81.0263 91.3284 171.638 127.897C284.903 173.607 306.656 159.936 377.968 122.037M-20.1776 207.432C6.70155 170.179 83.1588 104.123 173.955 137.925C287.45 180.178 309.018 165.804 379.793 125.609M-16.2083 226.382C10.1297 188.011 85.5518 118.86 176.536 149.228C290.265 187.188 311.595 171.949 381.677 128.935M-11.0908 250.34C14.508 210.51 88.497 137.295 179.663 163.073C293.62 195.296 314.617 178.92 383.724 132.187M-5.65504 267.033C19.12 225.665 91.4889 156.163 182.764 176.956C296.858 202.946 317.475 185.356 385.462 134.649M-0.707067 296.681C23.3609 254.059 94.3212 173.972 185.618 190.583C299.739 211.346 320.023 191.75 387.022 137.761M5.64495 318.598C28.7544 274.367 97.7803 192.693 189.008 203.769C303.043 217.613 322.866 198.726 388.491 140.464M13.5133 349.558C35.4113 303.431 101.956 216.265 192.949 220.546C306.358 225.882 325.803 206.57 389.191 143.616L389.75 143.06M22.8877 391.758C43.3627 343.58 106.945 246.364 197.472 242.925C310.631 238.627 329.137 215.453 390.798 146.37M35.0523 435.837C53.6312 385.192 113.194 280.57 202.813 267.237C314.837 250.572 332.356 225.267 391.018 149.122" stroke="url(#paint0_linear_839_3243)" stroke-width="2.52408"/>
<path d="M111.361 228.325C207.396 258.19 296.62 211.336 329.227 184.176V404.721L-114.219 404.72V228.377C-33.4773 200.966 -8.68446 190.993 111.361 228.325Z" fill="url(#paint1_linear_839_3243)"/>
<path d="M-160.658 266.266C-124.003 266.266 -25.8449 253.994 56.4168 322.024C158.235 406.227 185.114 409.429 268.604 417.466M-161.426 284.115C-123.42 271.557 -26.6855 263.156 56.202 330.02C159.811 413.601 185.885 414.147 269.46 420.714M-162.312 296.83C-124.491 283.45 -27.8909 272.954 55.9362 338.012C160.72 419.335 186.798 419.315 270.453 424.071M-163.139 309.613C-125.516 295.407 -29.0829 282.798 55.6675 346.009C161.606 425.024 187.679 424.434 271.39 427.356M-164.068 324.547C-126.707 309.326 -30.5212 294.108 55.3339 355.01C162.653 431.137 188.71 429.841 272.452 430.496M-165.139 343.471C-128.155 326.911 -32.3704 308.236 54.8898 366.02C163.965 438.25 189.98 436.016 273.702 433.655M-166.088 363.072C-129.545 345.08 -34.2862 322.686 54.4091 377.045C165.278 444.993 191.223 441.748 274.843 436.129M-166.712 380.287C-130.566 361.113 -35.8194 335.629 54.0071 387.084C166.29 451.403 192.157 447.315 275.628 438.979M-167.3 401.827C-131.718 381.114 -37.7467 351.58 53.4768 399.149C167.506 458.612 193.242 453.416 276.427 441.503M-167.656 427.53C-132.821 404.966 -39.955 370.523 52.8283 413.257C168.807 466.676 194.34 460.133 277.039 443.862M-167.573 456.821C-133.663 432.207 -42.2549 392.268 52.0945 429.422C170.031 475.864 195.278 467.807 277.242 446.625M-166.624 495.91C-134.103 468.593 -45.0282 421.31 51.1015 450.713C171.264 487.467 196.025 477.375 276.679 449.575M323.178 403.716C285.03 415.604 188.209 422.302 106.103 353.986C3.47101 268.591 -22.5943 267.586 -106.085 259.549M323.946 392.9C285.939 405.458 189.205 413.859 106.318 346.994C2.70853 263.414 -23.3657 262.868 -106.94 256.301M324.832 380.185C287.01 393.565 190.411 404.061 106.584 339.003C1.7998 257.68 -24.2781 257.699 -107.934 252.944M325.659 367.401C288.036 381.608 191.603 394.217 106.852 331.005C0.914207 251.99 -25.1594 252.581 -108.87 249.658M326.588 352.467C289.227 367.689 193.041 382.907 107.186 322.005C-0.133087 245.878 -26.1899 247.174 -109.932 246.519M327.659 333.544C290.675 350.104 194.89 368.779 107.63 310.995C-1.44524 238.764 -27.4603 240.998 -111.183 243.359M328.607 313.943C292.065 331.935 196.806 354.329 108.111 299.97C-2.75838 232.022 -28.7033 235.267 -112.323 240.886M329.231 296.728C293.086 315.902 198.339 341.386 108.513 289.931C9.94317 233.467 -22.0295 226.625 -84.8393 231.435M-84.8393 231.435C-93.5779 232.104 -102.913 232.999 -113.108 234.017M-84.8393 231.435C-22.811 223.318 9.41804 225.914 109.043 277.865C200.266 325.435 294.237 295.901 329.82 275.188M-84.8393 231.435C-93.8078 232.609 -103.399 234.007 -113.907 235.511M330.176 249.485C295.34 272.048 202.475 306.492 109.691 263.757C-6.28761 210.339 -31.8204 216.881 -114.519 233.153M330.092 220.194C296.182 244.807 204.775 284.747 110.425 247.593C-7.51156 201.15 -32.7581 209.207 -114.722 230.39M329.227 184.176C296.619 211.336 207.396 258.19 111.36 228.325C-8.6851 190.993 -33.4779 200.966 -114.219 228.377M-160.658 272.294C-124.003 272.294 -25.8449 260.022 56.4168 328.052C158.235 412.255 185.114 415.456 268.604 423.494M-161.426 290.143C-123.42 277.585 -26.6855 269.184 56.202 336.048C159.811 419.629 185.885 420.174 269.46 426.742M-162.312 302.857C-124.491 289.477 -27.8909 278.982 55.9362 344.04C160.72 425.362 186.798 425.343 270.453 430.099M-163.139 315.641C-125.516 301.435 -29.0829 288.826 55.6675 352.037C161.606 431.052 187.679 430.462 271.39 433.384M-164.068 330.575C-126.707 315.354 -30.5212 300.136 55.3339 361.038C162.653 437.165 188.71 435.869 272.452 436.524M-165.139 349.499C-128.155 332.939 -32.3704 314.264 54.8898 372.048C163.965 444.278 189.98 442.044 273.702 439.683M-166.088 369.1C-129.545 351.108 -34.2862 328.714 54.4091 383.073C165.278 451.021 191.223 447.776 274.843 442.157M-166.712 386.315C-130.566 367.141 -35.8194 341.656 54.0071 393.112C166.29 457.431 192.157 453.343 275.628 445.006M-167.3 407.855C-131.718 387.142 -37.7467 357.607 53.4768 405.177C167.506 464.639 193.242 459.444 276.427 447.531M-167.656 433.558C-132.821 410.994 -39.955 376.551 52.8283 419.285C168.807 472.704 194.34 466.161 277.039 449.89M-167.573 462.849C-133.663 438.235 -42.2549 398.296 52.0945 435.45C170.031 481.892 195.278 473.835 277.242 452.653M-166.624 501.938C-134.103 474.621 -45.0282 427.338 51.1015 456.741C171.264 493.494 196.025 483.402 276.679 455.603M323.178 409.744C285.03 421.632 188.209 428.33 106.103 360.014C3.47101 274.619 -22.5943 273.614 -106.085 265.577M323.946 398.927C285.939 411.486 189.205 419.886 106.318 353.022C2.70853 269.442 -23.3657 268.896 -106.94 262.329M324.832 386.213C287.01 399.593 190.411 410.088 106.584 345.03C1.7998 263.708 -24.2781 263.727 -107.934 258.972M325.659 375.439C288.036 389.645 191.603 400.245 106.852 337.033C0.914207 258.018 -25.1594 258.609 -108.87 255.686M326.588 360.505C289.227 375.726 193.041 388.934 107.186 328.033C-0.133087 251.906 -26.1899 253.202 -109.932 252.547M327.659 341.581C290.675 358.141 194.89 374.807 107.63 317.022C-1.44524 244.792 -27.4603 247.026 -111.183 249.387M328.607 321.98C292.065 339.972 196.806 360.356 108.111 305.998C-2.75838 238.049 -28.7033 241.295 -112.323 246.913M329.231 304.765C293.086 323.939 198.339 346.409 108.513 294.954C-3.7705 230.635 -29.637 235.728 -113.108 244.064M329.82 288.248C294.237 308.961 200.266 331.463 109.043 283.893C-4.98636 224.431 -30.7219 228.622 -113.907 240.535M330.176 262.545C295.34 285.109 202.475 312.52 109.691 269.785C-6.28761 216.367 -31.8204 217.886 -114.519 234.157M330.092 234.259C296.182 258.873 204.775 292.784 110.425 255.63C-7.51156 209.188 -32.7581 210.212 -114.722 231.394M328.607 205.302C296 232.462 207.396 267.232 111.36 237.367C-8.6851 200.035 -33.4779 198.956 -114.219 226.367" stroke="url(#paint2_linear_839_3243)" stroke-width="2.52408"/>
<path d="M164.849 113.961C100.031 182.277 23.5966 175.58 -6.51855 163.691V-1.57324H332.358V19.5244C266.447 27.5615 245.87 28.5662 164.849 113.961Z" fill="url(#paint3_linear_839_3243)"/>
<path d="M-6.51807 163.691C23.5971 175.58 100.032 182.277 164.849 113.961C245.871 28.5663 266.448 27.5618 332.358 19.5246M-7.12438 152.875C22.8792 165.434 99.2449 173.834 164.679 106.97C246.473 23.3896 267.057 22.8438 333.034 16.2765M-7.82388 140.161C22.0339 153.541 98.2933 164.036 164.47 98.9783C247.19 17.6558 267.777 17.6749 333.818 12.9196M-8.47685 127.377C21.2241 141.583 97.3523 154.193 164.258 90.9809C247.889 11.9661 268.473 12.5565 334.557 9.634M-9.20999 112.443C20.2842 127.665 96.2168 142.882 163.994 81.9805C248.716 5.85339 269.286 7.14957 335.396 6.49458M-10.056 93.5193C19.1412 110.08 94.757 128.754 163.644 70.9702C249.752 -1.2599 270.289 0.974048 336.383 3.33489M-10.8045 73.9185C18.0436 91.9103 93.2446 116.313 163.264 61.9548C250.788 -5.99348 271.27 -4.7573 337.283 0.861313M-11.2971 56.7038C17.2373 75.8777 92.0342 101.362 162.947 49.9066C251.587 -14.4125 272.007 -10.3244 337.903 -1.98827M-11.7616 35.1633C16.3285 55.8766 90.5127 85.4108 162.528 37.841C252.547 -21.6212 272.864 -16.4256 338.534 -4.51291M-12.0424 9.46063C15.4576 32.0243 88.7695 66.4676 162.016 23.7328C253.574 -29.6856 273.731 -23.143 339.016 -6.87152M-11.9768 -19.8307C14.7931 4.78319 86.9538 44.7224 161.437 7.56841C254.541 -38.8739 274.471 -30.8168 339.177 -9.63463M-11.2277 -58.9199C14.4456 -31.6029 84.7644 15.6804 160.653 -13.7225C255.514 -50.4762 275.061 -40.3841 338.732 -12.5846M-6.26009 158.655C23.8833 170.368 100.333 177.624 164.987 108.931C245.804 23.0636 266.378 21.939 332.269 13.5175M-6.89224 146.838C23.1411 159.221 99.5264 169.186 164.801 101.94C246.394 17.8834 266.976 17.2175 332.937 10.2655M-7.62211 134.127C22.2674 147.333 98.5514 159.393 164.572 93.9498C247.097 12.1455 267.684 12.0445 333.713 6.90417M-8.30561 120.343C21.4291 134.376 97.5869 149.555 164.341 85.9536C247.783 6.45174 268.368 6.922 334.445 3.61424M-9.07442 103.404C20.4559 118.453 96.4244 136.242 164.056 74.9456C248.595 -1.67506 269.168 1.51046 335.276 0.469952M-9.96565 84.4852C19.2709 100.875 94.9309 124.132 163.679 65.9467C249.614 -6.78504 270.156 -4.67087 336.255 -2.69547M-10.7609 65.8936C18.1299 83.717 93.3839 109.691 163.273 54.9243C250.634 -13.534 271.124 -10.4079 337.15 -5.17428M-11.2947 45.668C17.2853 64.6754 92.1427 96.7557 162.932 44.8873C251.418 -19.9482 271.848 -15.9792 337.762 -8.02746M-11.8107 19.1071C16.3288 39.6564 90.5831 80.8135 162.484 32.8242C252.361 -27.1624 272.69 -22.0855 338.387 -10.5558M-11.8106 -7.68284C15.7432 14.7203 88.7945 61.8808 161.939 18.7191C253.369 -35.2329 273.541 -28.8079 338.865 -12.9172M-12.1572 -23.8293C14.6713 0.62816 86.9269 40.1462 161.321 2.55821C254.313 -44.4267 274.263 -36.486 339.019 -15.6812M-11.5015 -62.9229C14.2369 -35.7557 84.6682 11.1173 160.486 -18.7281C255.258 -56.0345 274.83 -46.0566 338.567 -18.6285" stroke="url(#paint4_linear_839_3243)" stroke-width="2.52408"/>
<path d="M328 0H0V403H328V0Z" fill="#5E5E5E" fill-opacity="0.2"/>
<path d="M0 12C0 5.37259 5.37258 0 12 0H318C324.627 0 330 5.37258 330 12V393C330 399.627 324.627 405 318 405H12C5.37259 405 0 399.627 0 393V12Z" fill="url(#paint5_linear_839_3243)"/>
<path d="M330 12C330 5.37259 324.627 0 318 0H12C5.373 0 0 5.37258 0 12V393C0 399.627 5.373 405 12 405H318C324.627 405 330 399.627 330 393V12Z" fill="url(#paint6_linear_839_3243)"/>
</g>
<defs>
<linearGradient id="paint0_linear_839_3243" x1="235.523" y1="269.097" x2="49.0053" y2="-18.4308" gradientUnits="userSpaceOnUse">
<stop/>
<stop offset="0.155" stop-color="#191919"/>
<stop offset="0.57"/>
<stop offset="0.75" stop-color="#191919"/>
<stop offset="1"/>
</linearGradient>
<linearGradient id="paint1_linear_839_3243" x1="64.8228" y1="148.645" x2="203.744" y2="460.601" gradientUnits="userSpaceOnUse">
<stop stop-color="#111111"/>
<stop offset="0.365"/>
<stop offset="0.7" stop-color="#111111"/>
<stop offset="1"/>
</linearGradient>
<linearGradient id="paint2_linear_839_3243" x1="173.149" y1="223.888" x2="1.04661" y2="437.231" gradientUnits="userSpaceOnUse">
<stop/>
<stop offset="0.245" stop-color="#191919"/>
<stop offset="0.45"/>
<stop offset="1" stop-color="#191919"/>
</linearGradient>
<linearGradient id="paint3_linear_839_3243" x1="201.121" y1="171.144" x2="91.1396" y2="-21.1516" gradientUnits="userSpaceOnUse">
<stop/>
<stop offset="0.515" stop-color="#0E0E0E"/>
<stop offset="1"/>
</linearGradient>
<linearGradient id="paint4_linear_839_3243" x1="181.509" y1="141.507" x2="119.25" y2="-51.5714" gradientUnits="userSpaceOnUse">
<stop/>
<stop offset="0.25"/>
<stop offset="0.9999" stop-color="#191919"/>
</linearGradient>
<linearGradient id="paint5_linear_839_3243" x1="330" y1="0" x2="-5.28314e-07" y2="405" gradientUnits="userSpaceOnUse">
<stop offset="0.134618" stop-color="#020202"/>
<stop offset="0.475" stop-opacity="0"/>
<stop offset="0.879824" stop-color="#020202"/>
</linearGradient>
<linearGradient id="paint6_linear_839_3243" x1="0" y1="0" x2="330" y2="405" gradientUnits="userSpaceOnUse">
<stop stop-color="#020202"/>
<stop offset="0.475" stop-opacity="0"/>
<stop offset="0.879824" stop-color="#020202"/>
</linearGradient>
<clipPath id="clip0_839_3243">
<rect width="328" height="403" fill="white"/>
</clipPath>
</defs>
</svg>
